<svg width="32" height="32" viewBox="0 0 32 32" fill="none" xmlns="http://www.w3.org/2000/svg">
<g clip-path="url(#clip0_2352_24883)">
<path fill-rule="evenodd" clip-rule="evenodd" d="M15.9997 4.5C13.1509 4.50148 10.3955 5.51046 8.22626 7.34652C6.057 9.18259 4.61529 11.726 4.15893 14.522C3.70258 17.318 4.26132 20.1842 5.73526 22.6082C7.2092 25.0321 9.50223 26.8558 12.2043 27.753C12.8004 27.8636 13.025 27.4942 13.025 27.18C13.025 26.8659 13.0131 25.955 13.0091 24.9592C9.67079 25.6804 8.96537 23.5505 8.96537 23.5505C8.42091 22.1674 7.63403 21.8039 7.63403 21.8039C6.5451 21.065 7.7155 21.0788 7.7155 21.0788C8.92166 21.1637 9.55555 22.3097 9.55555 22.3097C10.6246 24.1333 12.3633 23.6058 13.0468 23.2976C13.1541 22.5251 13.4661 21.9995 13.8099 21.7012C11.1432 21.4008 8.34143 20.3774 8.34143 15.8054C8.3249 14.6197 8.76741 13.4731 9.5774 12.6027C9.4542 12.3024 9.04287 11.0892 9.69463 9.44143C9.69463 9.44143 10.7021 9.12136 12.9952 10.6644C14.9621 10.1296 17.0373 10.1296 19.0041 10.6644C21.2952 9.12136 22.3007 9.44143 22.3007 9.44143C22.9544 11.0853 22.5431 12.2984 22.4199 12.6027C23.2325 13.4732 23.6759 14.6219 23.6579 15.8094C23.6579 20.3912 20.8501 21.4008 18.1795 21.6952C18.6087 22.0667 18.9922 22.7918 18.9922 23.9061C18.9922 25.5026 18.9783 26.7868 18.9783 27.18C18.9783 27.4981 19.1949 27.8695 19.8029 27.753C22.5053 26.8557 24.7986 25.0317 26.2725 22.6073C27.7464 20.183 28.3049 17.3163 27.848 14.5201C27.3911 11.7238 25.9487 9.18036 23.7787 7.34461C21.6087 5.50886 18.8527 4.50054 16.0036 4.5H15.9997Z" fill="white"/>
<path d="M8.54553 21.6326C8.5197 21.6919 8.42432 21.7097 8.34683 21.6682C8.26933 21.6267 8.21171 21.5496 8.23953 21.4884C8.26735 21.4271 8.36074 21.4113 8.43824 21.4528C8.51573 21.4943 8.57534 21.5733 8.54553 21.6326Z" fill="white"/>
<path d="M9.03123 22.1711C8.99008 22.1918 8.943 22.1975 8.89805 22.1874C8.8531 22.1773 8.81308 22.152 8.78483 22.1158C8.70734 22.0328 8.69143 21.9182 8.75104 21.8669C8.81066 21.8155 8.91797 21.8392 8.99546 21.9222C9.07296 22.0052 9.09084 22.1198 9.03123 22.1711Z" fill="white"/>
<path d="M9.50485 22.8558C9.43133 22.9072 9.30614 22.8558 9.23659 22.7531C9.21736 22.7346 9.20207 22.7125 9.19162 22.6881C9.18117 22.6637 9.17578 22.6374 9.17578 22.6108C9.17578 22.5843 9.18117 22.558 9.19162 22.5335C9.20207 22.5091 9.21736 22.487 9.23659 22.4686C9.31011 22.4192 9.43531 22.4686 9.50485 22.5693C9.5744 22.6701 9.57639 22.8044 9.50485 22.8558Z" fill="white"/>
<path d="M10.1456 23.5212C10.0801 23.5943 9.94692 23.5746 9.83763 23.4758C9.72834 23.377 9.7025 23.2426 9.76808 23.1715C9.83365 23.1004 9.96679 23.1202 10.0801 23.217C10.1933 23.3138 10.2152 23.4501 10.1456 23.5212Z" fill="white"/>
<path d="M11.0462 23.9084C11.0164 24.0012 10.8812 24.0427 10.7461 24.0032C10.611 23.9637 10.5216 23.8531 10.5474 23.7582C10.5732 23.6634 10.7104 23.6199 10.8475 23.6634C10.9846 23.7069 11.072 23.8116 11.0462 23.9084Z" fill="white"/>
<path d="M12.0283 23.9747C12.0283 24.0715 11.9171 24.1545 11.774 24.1565C11.6309 24.1584 11.5137 24.0794 11.5137 23.9826C11.5137 23.8858 11.6249 23.8028 11.768 23.8008C11.9111 23.7988 12.0283 23.8759 12.0283 23.9747Z" fill="white"/>
<path d="M12.9424 23.8219C12.9603 23.9188 12.8609 24.0195 12.7178 24.0432C12.5748 24.0669 12.4496 24.0096 12.4317 23.9148C12.4138 23.82 12.5171 23.7172 12.6562 23.6915C12.7953 23.6659 12.9245 23.7251 12.9424 23.8219Z" fill="white"/>
</g>
<defs>
<clipPath id="clip0_2352_24883">
<rect width="24" height="24" fill="white" transform="translate(4 4)"/>
</clipPath>
</defs>
</svg>
