<svg width="32" height="32" viewBox="0 0 32 32" fill="none" xmlns="http://www.w3.org/2000/svg">
<path d="M14 17C14.4295 17.5741 14.9774 18.0491 15.6066 18.3929C16.2357 18.7367 16.9315 18.9411 17.6467 18.9923C18.3618 19.0435 19.0796 18.9403 19.7513 18.6897C20.4231 18.4392 21.0331 18.047 21.54 17.54L24.54 14.54C25.4508 13.597 25.9548 12.3339 25.9434 11.023C25.932 9.71198 25.4061 8.45791 24.4791 7.53087C23.5521 6.60383 22.298 6.07799 20.987 6.0666C19.676 6.0552 18.413 6.55918 17.47 7.46997L15.75 9.17997" stroke="white" stroke-width="2" stroke-linecap="round" stroke-linejoin="round"/>
<path d="M18.0002 14.9992C17.5707 14.4251 17.0228 13.9501 16.3936 13.6063C15.7645 13.2626 15.0687 13.0581 14.3535 13.0069C13.6384 12.9557 12.9206 13.0589 12.2489 13.3095C11.5771 13.5601 10.9671 13.9522 10.4602 14.4592L7.4602 17.4592C6.54941 18.4023 6.04544 19.6653 6.05683 20.9763C6.06822 22.2872 6.59407 23.5413 7.52111 24.4683C8.44815 25.3954 9.70221 25.9212 11.0132 25.9326C12.3242 25.944 13.5872 25.44 14.5302 24.5292L16.2402 22.8192" stroke="white" stroke-width="2" stroke-linecap="round" stroke-linejoin="round"/>
</svg>
