<svg width="16" height="16" viewBox="0 0 16 16" fill="none" xmlns="http://www.w3.org/2000/svg">
<path d="M13.5447 2.77144C12.5249 2.30352 11.4313 1.95878 10.2879 1.76133C10.2671 1.75752 10.2463 1.76704 10.2356 1.78609C10.0949 2.03623 9.93915 2.36256 9.83006 2.61906C8.60027 2.43494 7.37679 2.43494 6.17221 2.61906C6.0631 2.35686 5.90166 2.03623 5.76038 1.78609C5.74966 1.76767 5.72886 1.75815 5.70803 1.76133C4.56527 1.95814 3.47171 2.30289 2.45129 2.77144C2.44246 2.77525 2.43488 2.7816 2.42986 2.78985C0.355594 5.88876 -0.212633 8.9115 0.0661201 11.8968C0.0673814 11.9114 0.0755799 11.9253 0.086932 11.9342C1.45547 12.9392 2.78114 13.5494 4.08219 13.9538C4.10301 13.9602 4.12507 13.9525 4.13832 13.9354C4.44608 13.5151 4.72043 13.0719 4.95565 12.6059C4.96953 12.5786 4.95628 12.5462 4.92791 12.5355C4.49275 12.3704 4.0784 12.1691 3.67982 11.9406C3.64829 11.9222 3.64577 11.8771 3.67477 11.8555C3.75865 11.7926 3.84255 11.7272 3.92264 11.6612C3.93713 11.6491 3.95732 11.6466 3.97435 11.6542C6.59286 12.8497 9.4277 12.8497 12.0153 11.6542C12.0323 11.646 12.0525 11.6485 12.0677 11.6606C12.1478 11.7266 12.2316 11.7926 12.3161 11.8555C12.3451 11.8771 12.3433 11.9222 12.3117 11.9406C11.9131 12.1736 11.4988 12.3704 11.063 12.5348C11.0346 12.5456 11.022 12.5786 11.0359 12.6059C11.2762 13.0713 11.5505 13.5145 11.8526 13.9348C11.8652 13.9525 11.8879 13.9602 11.9087 13.9538C13.2161 13.5494 14.5417 12.9392 15.9103 11.9342C15.9223 11.9253 15.9298 11.912 15.9311 11.8974C16.2647 8.4461 15.3723 5.44815 13.5655 2.79048C13.5611 2.7816 13.5535 2.77525 13.5447 2.77144ZM5.34668 10.079C4.55833 10.079 3.90875 9.35528 3.90875 8.46643C3.90875 7.57757 4.54574 6.85381 5.34668 6.85381C6.15392 6.85381 6.79721 7.58393 6.78459 8.46643C6.78459 9.35528 6.14761 10.079 5.34668 10.079ZM10.6632 10.079C9.87484 10.079 9.22526 9.35528 9.22526 8.46643C9.22526 7.57757 9.86222 6.85381 10.6632 6.85381C11.4704 6.85381 12.1137 7.58393 12.1011 8.46643C12.1011 9.35528 11.4704 10.079 10.6632 10.079Z" fill="#C8C7D8"/>
</svg>
