<svg width="60" height="60" viewBox="0 0 60 60" fill="none" xmlns="http://www.w3.org/2000/svg">
<path fill-rule="evenodd" clip-rule="evenodd" d="M38.2375 12.0527H46.136L20.7059 47.669H12.9386L38.2375 12.0527ZM28.9587 22.5476L21.5151 12.0527H13.5859L25.0751 28.2722L28.9587 22.5476ZM27.0115 22.5679L25.0467 25.4641L16.6801 13.6527H20.6883L27.0115 22.5679ZM16.0377 46.069H19.8823L43.0276 13.6527H39.0636L16.0377 46.069Z" fill="white"/>
<path fill-rule="evenodd" clip-rule="evenodd" d="M39.9732 46.157H43.8143L34.8016 33.3589L32.8072 36.2081L39.9732 46.157ZM30.8448 36.2213L39.1538 47.757H46.898L34.7976 30.5745L30.8448 36.2213Z" fill="url(#paint0_linear_310_737)"/>
<path fill-rule="evenodd" clip-rule="evenodd" d="M30.3471 5.30992C30.3471 5.07323 30.1552 4.88135 29.9185 4.88135C29.6818 4.88135 29.4899 5.07323 29.4899 5.30992V5.33704C29.4899 5.57374 29.6818 5.76562 29.9185 5.76562C30.1552 5.76562 30.3471 5.57374 30.3471 5.33704V5.30992ZM30.3471 9.67715C30.3471 9.44046 30.1552 9.24858 29.9185 9.24858C29.6818 9.24858 29.4899 9.44046 29.4899 9.67715V9.7314C29.4899 9.9681 29.6818 10.16 29.9185 10.16C30.1552 10.16 30.3471 9.9681 30.3471 9.7314V9.67715ZM30.3471 14.0715C30.3471 13.8348 30.1552 13.6429 29.9185 13.6429C29.6818 13.6429 29.4899 13.8348 29.4899 14.0715V14.1258C29.4899 14.3625 29.6818 14.5543 29.9185 14.5543C30.1552 14.5543 30.3471 14.3625 30.3471 14.1258V14.0715ZM30.3471 18.4659C30.3471 18.2292 30.1552 18.0373 29.9185 18.0373C29.6818 18.0373 29.4899 18.2292 29.4899 18.4659V18.493C29.4899 18.7297 29.6818 18.9216 29.9185 18.9216C30.1552 18.9216 30.3471 18.7297 30.3471 18.493V18.4659ZM30.3471 40.1464C30.3471 39.9097 30.1552 39.7178 29.9185 39.7178C29.6818 39.7178 29.4899 39.9097 29.4899 40.1464V40.1754C29.4899 40.4121 29.6818 40.6039 29.9185 40.6039C30.1552 40.6039 30.3471 40.4121 30.3471 40.1754V40.1464ZM30.3471 44.8069C30.3471 44.5702 30.1552 44.3784 29.9185 44.3784C29.6818 44.3784 29.4899 44.5702 29.4899 44.8069V44.8648C29.4899 45.1015 29.6818 45.2934 29.9185 45.2934C30.1552 45.2934 30.3471 45.1015 30.3471 44.8648V44.8069ZM30.3471 49.4964C30.3471 49.2597 30.1552 49.0678 29.9185 49.0678C29.6818 49.0678 29.4899 49.2597 29.4899 49.4964V49.5543C29.4899 49.791 29.6818 49.9829 29.9185 49.9829C30.1552 49.9829 30.3471 49.791 30.3471 49.5543V49.4964ZM30.3471 54.1858C30.3471 53.9492 30.1552 53.7573 29.9185 53.7573C29.6818 53.7573 29.4899 53.9492 29.4899 54.1858V54.2437C29.4899 54.4804 29.6818 54.6723 29.9185 54.6723C30.1552 54.6723 30.3471 54.4804 30.3471 54.2437V54.1858ZM30.3471 58.8753C30.3471 58.6386 30.1552 58.4467 29.9185 58.4467C29.6818 58.4467 29.4899 58.6386 29.4899 58.8753V58.9043C29.4899 59.141 29.6818 59.3328 29.9185 59.3328C30.1552 59.3328 30.3471 59.141 30.3471 58.9043V58.8753ZM59.3231 29.9282C59.3231 30.1649 59.1312 30.3568 58.8945 30.3568H58.8686C58.6319 30.3568 58.44 30.1649 58.44 29.9282C58.44 29.6915 58.6319 29.4997 58.8686 29.4997H58.8945C59.1312 29.4997 59.3231 29.6915 59.3231 29.9282ZM55.1483 29.9282C55.1483 30.1649 54.9565 30.3568 54.7198 30.3568H54.6679C54.4312 30.3568 54.2393 30.1649 54.2393 29.9282C54.2393 29.6915 54.4312 29.4997 54.6679 29.4997H54.7198C54.9565 29.4997 55.1483 29.6915 55.1483 29.9282ZM50.9477 29.9282C50.9477 30.1649 50.7558 30.3568 50.5191 30.3568H50.4672C50.2305 30.3568 50.0387 30.1649 50.0387 29.9282C50.0387 29.6915 50.2305 29.4997 50.4672 29.4997H50.5191C50.7558 29.4997 50.9477 29.6915 50.9477 29.9282ZM46.747 29.9282C46.747 30.1649 46.5551 30.3568 46.3184 30.3568H46.2666C46.0299 30.3568 45.838 30.1649 45.838 29.9282C45.838 29.6915 46.0299 29.4997 46.2666 29.4997H46.3184C46.5551 29.4997 46.747 29.6915 46.747 29.9282ZM42.5463 29.9282C42.5463 30.1649 42.3545 30.3568 42.1178 30.3568H42.0659C41.8292 30.3568 41.6373 30.1649 41.6373 29.9282C41.6373 29.6915 41.8292 29.4997 42.0659 29.4997H42.1178C42.3545 29.4997 42.5463 29.6915 42.5463 29.9282ZM38.3457 29.9282C38.3457 30.1649 38.1538 30.3568 37.9171 30.3568H37.8912C37.6545 30.3568 37.4626 30.1649 37.4626 29.9282C37.4626 29.6915 37.6545 29.4997 37.8912 29.4997H37.9171C38.1538 29.4997 38.3457 29.6915 38.3457 29.9282ZM22.1292 30.3568C22.3659 30.3568 22.5577 30.1649 22.5577 29.9282C22.5577 29.6915 22.3659 29.4997 22.1292 29.4997H22.103C21.8663 29.4997 21.6744 29.6915 21.6744 29.9282C21.6744 30.1649 21.8663 30.3568 22.103 30.3568H22.1292ZM17.9179 30.3568C18.1546 30.3568 18.3465 30.1649 18.3465 29.9282C18.3465 29.6915 18.1546 29.4997 17.9179 29.4997H17.8656C17.6289 29.4997 17.4371 29.6915 17.4371 29.9282C17.4371 30.1649 17.6289 30.3568 17.8656 30.3568H17.9179ZM13.6806 30.3568C13.9172 30.3568 14.1091 30.1649 14.1091 29.9282C14.1091 29.6915 13.9172 29.4997 13.6806 29.4997H13.6282C13.3915 29.4997 13.1997 29.6915 13.1997 29.9282C13.1997 30.1649 13.3915 30.3568 13.6282 30.3568H13.6806ZM9.44317 30.3568C9.67986 30.3568 9.87174 30.1649 9.87174 29.9282C9.87174 29.6915 9.67986 29.4997 9.44317 29.4997H9.39086C9.15416 29.4997 8.96228 29.6915 8.96228 29.9282C8.96228 30.1649 9.15416 30.3568 9.39086 30.3568H9.44317ZM5.20578 30.3568C5.44248 30.3568 5.63436 30.1649 5.63436 29.9282C5.63436 29.6915 5.44248 29.4997 5.20578 29.4997H5.15347C4.91678 29.4997 4.7249 29.6915 4.7249 29.9282C4.7249 30.1649 4.91678 30.3568 5.15347 30.3568H5.20578ZM0.968401 30.3568C1.2051 30.3568 1.39697 30.1649 1.39697 29.9282C1.39697 29.6915 1.2051 29.4997 0.968401 29.4997H0.942243C0.705549 29.4997 0.513672 29.6915 0.513672 29.9282C0.513672 30.1649 0.705549 30.3568 0.942243 30.3568H0.968401Z" fill="#55555E"/>
<path fill-rule="evenodd" clip-rule="evenodd" d="M29.8896 0.523682H29.9469C30.1836 0.523908 30.3753 0.715969 30.3751 0.952662C30.3749 1.18936 30.1828 1.38105 29.9461 1.38082H29.8905C29.6538 1.38105 29.4617 1.18936 29.4615 0.952662C29.4613 0.715969 29.653 0.523908 29.8896 0.523682ZM25.8389 1.23418C25.8754 1.46804 25.7155 1.68723 25.4816 1.72374L25.4268 1.73236C25.193 1.76934 24.9735 1.60979 24.9365 1.376C24.8995 1.14221 25.0591 0.922715 25.2929 0.885741L25.3493 0.876864C25.5832 0.840346 25.8024 1.00032 25.8389 1.23418ZM33.9977 1.23418C34.0342 1.00032 34.2534 0.840346 34.4872 0.876864L34.5437 0.885741C34.7775 0.922715 34.9371 1.14221 34.9001 1.376C34.8631 1.60979 34.6436 1.76934 34.4098 1.73236L34.355 1.72374C34.1211 1.68723 33.9612 1.46804 33.9977 1.23418ZM38.4337 2.22143C38.5066 1.99624 38.7482 1.87277 38.9734 1.94565L39.0277 1.96327C39.2527 2.0366 39.3757 2.27848 39.3024 2.50353C39.2291 2.72858 38.9872 2.85158 38.7622 2.77825L38.7095 2.76115C38.4843 2.68826 38.3608 2.44663 38.4337 2.22143ZM21.4029 2.22143C21.4758 2.44663 21.3523 2.68827 21.1271 2.76115L21.0744 2.77825C20.8494 2.85158 20.6075 2.72858 20.5342 2.50353C20.4608 2.27848 20.5838 2.0366 20.8089 1.96328L20.8632 1.94565C21.0884 1.87277 21.33 1.99624 21.4029 2.22143ZM42.6584 3.89514C42.7658 3.68423 43.0238 3.60034 43.2347 3.70776L43.2855 3.73367C43.4962 3.84151 43.5796 4.09973 43.4718 4.31043C43.3639 4.52114 43.1057 4.60453 42.895 4.4967L42.8457 4.47154C42.6348 4.36412 42.5509 4.10606 42.6584 3.89514ZM17.1782 3.89515C17.2857 4.10606 17.2018 4.36412 16.9908 4.47154L16.9416 4.4967C16.7309 4.60453 16.4726 4.52114 16.3648 4.31043C16.257 4.09973 16.3404 3.84151 16.5511 3.73367L16.6018 3.70776C16.8127 3.60034 17.0708 3.68423 17.1782 3.89515ZM13.269 6.21147C13.4081 6.40298 13.3656 6.67099 13.1741 6.81008L13.1294 6.84262C12.9381 6.98209 12.6701 6.94012 12.5306 6.74887C12.3911 6.55763 12.4331 6.28954 12.6243 6.15008L12.6704 6.11656C12.8619 5.97746 13.1299 6.01996 13.269 6.21147ZM46.5676 6.21147C46.7067 6.01996 46.9747 5.97747 47.1662 6.11656L47.2122 6.15008C47.4035 6.28954 47.4455 6.55763 47.306 6.74887C47.1665 6.94012 46.8984 6.98209 46.7072 6.84262L46.6625 6.81008C46.471 6.67099 46.4285 6.40298 46.5676 6.21147ZM9.76907 9.1096C9.93627 9.27713 9.93601 9.54848 9.76848 9.71569L9.72936 9.75481C9.56216 9.92234 9.2908 9.9226 9.12327 9.75539C8.95574 9.58819 8.95548 9.31683 9.12269 9.1493L9.16298 9.10901C9.3305 8.94181 9.60186 8.94207 9.76907 9.1096ZM50.0675 9.1096C50.2347 8.94207 50.5061 8.94181 50.6736 9.10901L50.7139 9.1493C50.8811 9.31683 50.8808 9.58819 50.7133 9.75539C50.5458 9.9226 50.2744 9.92234 50.1072 9.75481L50.0681 9.71569C49.9006 9.54848 49.9003 9.27713 50.0675 9.1096ZM6.76255 12.5169C6.95379 12.6564 6.99576 12.9245 6.8563 13.1157L6.82375 13.1604C6.68466 13.3519 6.41665 13.3944 6.22514 13.2553C6.03363 13.1162 5.99114 12.8482 6.13023 12.6567L6.16375 12.6107C6.30321 12.4194 6.5713 12.3775 6.76255 12.5169ZM53.074 12.5169C53.2653 12.3775 53.5334 12.4194 53.6728 12.6107L53.7064 12.6567C53.8454 12.8482 53.803 13.1162 53.6114 13.2553C53.4199 13.3944 53.1519 13.3519 53.0128 13.1604L52.9803 13.1157C52.8408 12.9245 52.8828 12.6564 53.074 12.5169ZM55.5125 16.3511C55.7232 16.2433 55.9814 16.3267 56.0892 16.5374L56.1152 16.5882C56.2226 16.7991 56.1387 17.0571 55.9278 17.1646C55.7169 17.272 55.4588 17.1881 55.3514 16.9772L55.3262 16.9279C55.2184 16.7172 55.3018 16.459 55.5125 16.3511ZM4.3241 16.3511C4.53481 16.459 4.6182 16.7172 4.51037 16.9279L4.48521 16.9772C4.37779 17.1881 4.11973 17.272 3.90882 17.1646C3.6979 17.0571 3.61401 16.7991 3.72143 16.5882L3.74734 16.5374C3.85518 16.3267 4.1134 16.2433 4.3241 16.3511ZM2.5172 20.5205C2.74225 20.5938 2.86525 20.8357 2.79193 21.0607L2.77482 21.1134C2.70194 21.3386 2.4603 21.4621 2.23511 21.3892C2.00991 21.3163 1.88644 21.0747 1.95932 20.8495L1.97695 20.7952C2.05027 20.5702 2.29215 20.4472 2.5172 20.5205ZM57.3194 20.5205C57.5444 20.4472 57.7863 20.5702 57.8596 20.7952L57.8773 20.8495C57.9501 21.0747 57.8267 21.3163 57.6015 21.3892C57.3763 21.4621 57.1346 21.3386 57.0618 21.1134L57.0447 21.0607C56.9713 20.8357 57.0943 20.5938 57.3194 20.5205ZM1.38967 24.9228C1.62346 24.9598 1.78301 25.1793 1.74603 25.4131L1.73742 25.4679C1.7009 25.7018 1.48171 25.8618 1.24785 25.8252C1.01399 25.7887 0.854018 25.5695 0.890536 25.3357L0.899413 25.2792C0.936387 25.0454 1.15588 24.8859 1.38967 24.9228ZM58.4469 24.9228C58.6807 24.8859 58.9002 25.0454 58.9372 25.2792L58.946 25.3357C58.9826 25.5695 58.8226 25.7887 58.5887 25.8252C58.3549 25.8618 58.1357 25.7018 58.0992 25.4679L58.0906 25.4131C58.0536 25.1793 58.2131 24.9598 58.4469 24.9228ZM0.966334 29.4478C1.20303 29.448 1.39472 29.6401 1.3945 29.8768V29.9324C1.39472 30.1691 1.20303 30.3612 0.966334 30.3614C0.72964 30.3617 0.537579 30.17 0.537354 29.9333V29.876C0.537579 29.6393 0.72964 29.4476 0.966334 29.4478ZM58.8702 29.4478C59.1069 29.4476 59.299 29.6393 59.2992 29.876V29.9333C59.299 30.17 59.1069 30.3617 58.8702 30.3614C58.6336 30.3612 58.4419 30.1691 58.4421 29.9324V29.8768C58.4419 29.6401 58.6336 29.448 58.8702 29.4478ZM1.24785 33.984C1.48171 33.9475 1.7009 34.1075 1.73742 34.3413L1.74603 34.3962C1.78301 34.6299 1.62346 34.8494 1.38967 34.8864C1.15588 34.9234 0.936387 34.7638 0.899413 34.53L0.890536 34.4736C0.854018 34.2397 1.01399 34.0205 1.24785 33.984ZM58.5887 33.984C58.8226 34.0205 58.9826 34.2397 58.946 34.4736L58.9372 34.53C58.9002 34.7638 58.6807 34.9234 58.4469 34.8864C58.2131 34.8494 58.0536 34.6299 58.0906 34.3962L58.0992 34.3413C58.1357 34.1075 58.3549 33.9475 58.5887 33.984ZM2.23511 38.42C2.4603 38.3472 2.70194 38.4706 2.77482 38.6958L2.79193 38.7485C2.86525 38.9736 2.74225 39.2154 2.5172 39.2888C2.29215 39.3621 2.05027 39.2391 1.97695 39.014L1.95932 38.9597C1.88644 38.7346 2.00991 38.4929 2.23511 38.42ZM57.6015 38.42C57.8267 38.4929 57.9501 38.7346 57.8773 38.9597L57.8596 39.014C57.7863 39.2391 57.5444 39.3621 57.3194 39.2888C57.0943 39.2154 56.9713 38.9736 57.0447 38.7485L57.0618 38.6958C57.1346 38.4706 57.3763 38.3472 57.6015 38.42ZM3.90882 42.6447C4.11973 42.5373 4.37779 42.6212 4.48521 42.8321L4.51037 42.8813C4.6182 43.092 4.53481 43.3503 4.32411 43.4581C4.1134 43.5659 3.85518 43.4825 3.74735 43.2718L3.72143 43.2211C3.61401 43.0102 3.6979 42.7521 3.90882 42.6447ZM55.9278 42.6447C56.1387 42.7521 56.2226 43.0102 56.1152 43.2211L56.0892 43.2718C55.9814 43.4825 55.7232 43.5659 55.5125 43.4581C55.3018 43.3503 55.2184 43.092 55.3262 42.8813L55.3514 42.8321C55.4588 42.6212 55.7169 42.5373 55.9278 42.6447ZM6.22514 46.5539C6.41665 46.4148 6.68466 46.4573 6.82375 46.6488L6.8563 46.6935C6.99576 46.8848 6.95379 47.1529 6.76255 47.2923C6.5713 47.4318 6.30321 47.3898 6.16375 47.1986L6.13023 47.1525C5.99114 46.961 6.03363 46.693 6.22514 46.5539ZM53.6114 46.5539C53.803 46.693 53.8454 46.961 53.7064 47.1525L53.6728 47.1986C53.5334 47.3898 53.2653 47.4318 53.074 47.2923C52.8828 47.1529 52.8408 46.8848 52.9803 46.6935L53.0128 46.6488C53.1519 46.4573 53.4199 46.4148 53.6114 46.5539ZM9.12327 50.0538C9.2908 49.8866 9.56216 49.8869 9.72936 50.0544L9.76848 50.0936C9.93601 50.2608 9.93627 50.5321 9.76907 50.6996C9.60186 50.8672 9.3305 50.8674 9.16298 50.7002L9.12269 50.6599C8.95548 50.4924 8.95574 50.221 9.12327 50.0538ZM50.7133 50.0538C50.8808 50.221 50.8811 50.4924 50.7139 50.6599L50.6736 50.7002C50.5061 50.8674 50.2347 50.8672 50.0675 50.6996C49.9003 50.5321 49.9006 50.2608 50.0681 50.0936L50.1072 50.0544C50.2744 49.8869 50.5458 49.8866 50.7133 50.0538ZM12.5306 53.0604C12.6701 52.8691 12.9381 52.8271 13.1294 52.9666L13.1741 52.9992C13.3656 53.1383 13.4081 53.4063 13.269 53.5978C13.1299 53.7893 12.8619 53.8318 12.6704 53.6927L12.6243 53.6592C12.4331 53.5197 12.3911 53.2516 12.5306 53.0604ZM47.306 53.0604C47.4455 53.2516 47.4035 53.5197 47.2122 53.6592L47.1662 53.6927C46.9747 53.8318 46.7067 53.7893 46.5676 53.5978C46.4285 53.4063 46.471 53.1383 46.6625 52.9992L46.7072 52.9666C46.8984 52.8271 47.1665 52.8691 47.306 53.0604ZM16.3648 55.4988C16.4726 55.2881 16.7309 55.2047 16.9416 55.3125L16.9908 55.3377C17.2018 55.4451 17.2857 55.7032 17.1782 55.9141C17.0708 56.125 16.8127 56.2089 16.6018 56.1015L16.5511 56.0756C16.3404 55.9677 16.257 55.7095 16.3648 55.4988ZM43.4718 55.4988C43.5796 55.7095 43.4962 55.9677 43.2855 56.0756L43.2348 56.1015C43.0238 56.2089 42.7658 56.125 42.6584 55.9141C42.5509 55.7032 42.6348 55.4451 42.8457 55.3377L42.895 55.3125C43.1057 55.2047 43.3639 55.2881 43.4718 55.4988ZM20.5342 57.3057C20.6075 57.0807 20.8494 56.9577 21.0744 57.031L21.1271 57.0481C21.3523 57.121 21.4758 57.3626 21.4029 57.5878C21.33 57.813 21.0884 57.9365 20.8632 57.8636L20.8089 57.846C20.5838 57.7726 20.4608 57.5308 20.5342 57.3057ZM39.3024 57.3057C39.3757 57.5308 39.2527 57.7726 39.0277 57.846L38.9734 57.8636C38.7482 57.9365 38.5066 57.813 38.4337 57.5878C38.3608 57.3626 38.4843 57.121 38.7095 57.0481L38.7622 57.031C38.9872 56.9577 39.2291 57.0807 39.3024 57.3057ZM24.9365 58.4332C24.9735 58.1995 25.193 58.0399 25.4268 58.0769L25.4816 58.0855C25.7155 58.122 25.8754 58.3412 25.8389 58.5751C25.8024 58.8089 25.5832 58.9689 25.3493 58.9324L25.2929 58.9235C25.0591 58.8865 24.8995 58.667 24.9365 58.4332ZM34.9001 58.4332C34.9371 58.667 34.7775 58.8865 34.5437 58.9235L34.4872 58.9324C34.2534 58.9689 34.0342 58.8089 33.9977 58.5751C33.9612 58.3412 34.1211 58.122 34.355 58.0855L34.4098 58.0769C34.6436 58.0399 34.8631 58.1995 34.9001 58.4332ZM29.4615 58.8566C29.4617 58.6199 29.6538 58.4282 29.8905 58.4284H29.9461C30.1828 58.4282 30.3749 58.6199 30.3751 58.8566C30.3753 59.0933 30.1836 59.2853 29.9469 59.2856H29.8896C29.653 59.2853 29.4613 59.0933 29.4615 58.8566Z" fill="white"/>
<path d="M30.8708 58.8569C30.8708 59.3829 30.4445 59.8093 29.9185 59.8093V59.8093C29.3925 59.8093 28.9661 59.3829 28.9661 58.8569V58.8569C28.9661 58.331 29.3925 57.9046 29.9185 57.9046V57.9046C30.4445 57.9046 30.8708 58.331 30.8708 58.8569V58.8569Z" fill="#6966FF"/>
<path d="M58.8706 30.8572C58.3446 30.8572 57.9182 30.4308 57.9182 29.9048V29.9048C57.9182 29.3788 58.3446 28.9524 58.8706 28.9524V28.9524C59.3966 28.9524 59.823 29.3788 59.823 29.9048V29.9048C59.823 30.4308 59.3966 30.8572 58.8706 30.8572V30.8572Z" fill="#6966FF"/>
<path d="M30.8708 0.95216C30.8708 1.47815 30.4445 1.90454 29.9185 1.90454V1.90454C29.3925 1.90454 28.9661 1.47815 28.9661 0.95216V0.95216C28.9661 0.426175 29.3925 -0.000221024 29.9185 -0.000220978V-0.000220978C30.4445 -0.000220932 30.8708 0.426175 30.8708 0.95216V0.95216Z" fill="#6966FF"/>
<path d="M0.966053 30.8572C0.440068 30.8572 0.0136719 30.4308 0.013672 29.9048V29.9048C0.0136721 29.3788 0.440068 28.9524 0.966053 28.9524V28.9524C1.49204 28.9524 1.91843 29.3788 1.91843 29.9048V29.9048C1.91843 30.4308 1.49204 30.8572 0.966053 30.8572V30.8572Z" fill="#6966FF"/>
<defs>
<linearGradient id="paint0_linear_310_737" x1="40.8986" y1="45.0525" x2="28.0996" y2="27.4666" gradientUnits="userSpaceOnUse">
<stop stop-color="#6966FF"/>
<stop offset="1" stop-color="#6966FF" stop-opacity="0.36"/>
</linearGradient>
</defs>
</svg>
