<svg width="112" height="66" viewBox="0 0 112 66" fill="none" xmlns="http://www.w3.org/2000/svg">
<path d="M0 61.1446C0.311168 63.2338 2.31153 65.1008 5.31208 65.1008C9.42395 65.1008 11.0465 62.367 11.0465 59.3665V49.6091H8.2015V50.8982C7.82366 50.1648 6.82347 49.4091 5.08982 49.4091C2.08927 49.4091 0 51.854 0 54.7434C0 57.8106 2.17818 60.0555 5.08982 60.0555C6.66789 60.0555 7.6903 59.3665 8.13482 58.6552V59.4554C8.13482 61.5669 7.09019 62.5004 5.22318 62.5004C3.82292 62.5004 2.86719 61.6335 2.66715 60.4333L0 61.1446ZM5.60103 57.5217C4.06741 57.5217 2.97832 56.4548 2.97832 54.7434C2.97832 53.0542 4.13409 51.9873 5.60103 51.9873C7.02351 51.9873 8.17927 53.0542 8.17927 54.7434C8.17927 56.4326 7.11241 57.5217 5.60103 57.5217Z" fill="#6966FF"/>
<path d="M17.0146 49.6091H14.0585V60.5445H17.0146V51.6095C17.0813 52.6319 17.9258 53.4098 18.9927 53.4098C20.104 53.4098 20.9708 52.543 20.9708 51.4317C20.9708 50.3204 20.104 49.4535 18.9927 49.4535C17.9258 49.4535 17.0813 50.2537 17.0146 51.2983V49.6091Z" fill="#6966FF"/>
<path d="M22.0961 57.5661C22.0961 59.2776 23.5185 60.8556 25.8523 60.8556C27.4748 60.8556 28.5195 60.0999 29.0751 59.2331C29.0751 59.6554 29.1196 60.2555 29.1862 60.5445H31.8979C31.8312 60.1666 31.7645 59.3887 31.7645 58.8108V53.432C31.7645 51.2316 30.4754 49.2757 27.0081 49.2757C24.0742 49.2757 22.4961 51.165 22.3183 52.8764L24.941 53.432C25.0299 52.4763 25.7412 51.6539 27.0303 51.6539C28.275 51.6539 28.8751 52.2985 28.8751 53.0764C28.8751 53.4543 28.675 53.7654 28.0527 53.8543L25.3633 54.2544C23.5408 54.5211 22.0961 55.6102 22.0961 57.5661ZM26.4746 58.6552C25.5189 58.6552 25.0522 58.0329 25.0522 57.3883C25.0522 56.5437 25.6523 56.1214 26.408 56.0103L28.8751 55.6324V56.1214C28.8751 58.0551 27.7193 58.6552 26.4746 58.6552Z" fill="#6966FF"/>
<path d="M37.6564 54.2544C37.6564 52.9875 38.4121 51.9873 39.7012 51.9873C41.1237 51.9873 41.7238 52.9431 41.7238 54.1655V60.5445H44.6799V53.6543C44.6799 51.2539 43.4352 49.3202 40.7236 49.3202C39.5456 49.3202 38.2343 49.8314 37.5675 50.9649V49.6091H34.7003V60.5445H37.6564V54.2544Z" fill="#6966FF"/>
<path d="M51.4384 46.3419H48.7712V47.8755C48.7712 48.8534 48.2378 49.6091 47.0821 49.6091H46.5264V52.2318H48.5045V57.3216C48.5045 59.4331 49.8381 60.7 51.9718 60.7C52.8387 60.7 53.3721 60.5445 53.6388 60.4333V57.9884C53.4832 58.0329 53.0831 58.0773 52.7275 58.0773C51.8829 58.0773 51.4384 57.7662 51.4384 56.8104V52.2318H53.6388V49.6091H51.4384V46.3419Z" fill="#6966FF"/>
<path d="M55.2815 57.4995C55.4148 58.7441 56.5484 60.8778 59.8379 60.8778C62.705 60.8778 64.0831 59.0553 64.0831 57.2772C64.0831 55.6769 62.994 54.3655 60.838 53.921L59.2822 53.5876C58.6821 53.4765 58.282 53.1431 58.282 52.6097C58.282 51.9873 58.9044 51.5206 59.6823 51.5206C60.9269 51.5206 61.3937 52.343 61.4826 52.9875L63.9497 52.4319C63.8164 51.2539 62.7717 49.2757 59.66 49.2757C57.3041 49.2757 55.5704 50.8982 55.5704 52.8542C55.5704 54.3878 56.5261 55.6547 58.6376 56.1214L60.0823 56.4548C60.9269 56.6326 61.2603 57.0327 61.2603 57.5217C61.2603 58.0996 60.7936 58.6108 59.8156 58.6108C58.5265 58.6108 57.8819 57.8106 57.8153 56.9438L55.2815 57.4995Z" fill="#6966FF"/>
<path fill-rule="evenodd" clip-rule="evenodd" d="M86.221 34.2364C86.425 34.2364 86.5904 34.4018 86.5904 34.6058V34.6307C86.5904 34.8348 86.425 35.0002 86.221 35.0002C86.017 35.0002 85.8516 34.8348 85.8516 34.6307V34.6058C85.8516 34.4018 86.017 34.2364 86.221 34.2364ZM86.221 38.2537C86.425 38.2537 86.5904 38.4191 86.5904 38.6231V38.673C86.5904 38.877 86.425 39.0424 86.221 39.0424C86.017 39.0424 85.8516 38.877 85.8516 38.673V38.6231C85.8516 38.4191 86.017 38.2537 86.221 38.2537ZM86.221 42.296C86.425 42.296 86.5904 42.4614 86.5904 42.6654V42.7153C86.5904 42.9193 86.425 43.0847 86.221 43.0847C86.017 43.0847 85.8516 42.9193 85.8516 42.7153V42.6654C85.8516 42.4614 86.017 42.296 86.221 42.296ZM86.221 46.3382C86.425 46.3382 86.5904 46.5036 86.5904 46.7076V46.7576C86.5904 46.9616 86.425 47.127 86.221 47.127C86.017 47.127 85.8516 46.9616 85.8516 46.7576V46.7076C85.8516 46.5036 86.017 46.3382 86.221 46.3382ZM86.221 50.3805C86.425 50.3805 86.5904 50.5459 86.5904 50.7499V50.7749C86.5904 50.9789 86.425 51.1443 86.221 51.1443C86.017 51.1443 85.8516 50.9789 85.8516 50.7749V50.7499C85.8516 50.5459 86.017 50.3805 86.221 50.3805Z" fill="#55555E"/>
<path fill-rule="evenodd" clip-rule="evenodd" d="M86.221 4.20707C86.425 4.20707 86.5904 4.37247 86.5904 4.5765V4.59988C86.5904 4.80391 86.425 4.9693 86.221 4.9693C86.017 4.9693 85.8516 4.80391 85.8516 4.59988V4.5765C85.8516 4.37247 86.017 4.20707 86.221 4.20707ZM86.221 7.97158C86.425 7.97158 86.5904 8.13698 86.5904 8.34101V8.38777C86.5904 8.5918 86.425 8.7572 86.221 8.7572C86.017 8.7572 85.8516 8.5918 85.8516 8.38777V8.34101C85.8516 8.13698 86.017 7.97158 86.221 7.97158ZM86.221 11.7595C86.425 11.7595 86.5904 11.9249 86.5904 12.1289V12.1757C86.5904 12.3797 86.425 12.5451 86.221 12.5451C86.017 12.5451 85.8516 12.3797 85.8516 12.1757V12.1289C85.8516 11.9249 86.017 11.7595 86.221 11.7595ZM86.221 15.5474C86.425 15.5474 86.5904 15.7128 86.5904 15.9168V15.9402C86.5904 16.1442 86.425 16.3096 86.221 16.3096C86.017 16.3096 85.8516 16.1442 85.8516 15.9402V15.9168C85.8516 15.7128 86.017 15.5474 86.221 15.5474Z" fill="#55555E"/>
<path fill-rule="evenodd" clip-rule="evenodd" d="M111.568 25.7972C111.568 26.0012 111.403 26.1666 111.199 26.1666H111.177C110.973 26.1666 110.807 26.0012 110.807 25.7972C110.807 25.5932 110.973 25.4278 111.177 25.4278H111.199C111.403 25.4278 111.568 25.5932 111.568 25.7972ZM107.97 25.7972C107.97 26.0012 107.804 26.1666 107.6 26.1666H107.556C107.352 26.1666 107.186 26.0012 107.186 25.7972C107.186 25.5932 107.352 25.4278 107.556 25.4278H107.6C107.804 25.4278 107.97 25.5932 107.97 25.7972ZM104.349 25.7972C104.349 26.0012 104.183 26.1666 103.979 26.1666H103.935C103.731 26.1666 103.565 26.0012 103.565 25.7972C103.565 25.5932 103.731 25.4278 103.935 25.4278H103.979C104.183 25.4278 104.349 25.5932 104.349 25.7972ZM100.728 25.7972C100.728 26.0012 100.563 26.1666 100.358 26.1666H100.314C100.11 26.1666 99.9443 26.0012 99.9443 25.7972C99.9443 25.5932 100.11 25.4278 100.314 25.4278H100.358C100.563 25.4278 100.728 25.5932 100.728 25.7972ZM97.107 25.7972C97.107 26.0012 96.9416 26.1666 96.7375 26.1666H96.6928C96.4888 26.1666 96.3234 26.0012 96.3234 25.7972C96.3234 25.5932 96.4888 25.4278 96.6928 25.4278H96.7375C96.9416 25.4278 97.107 25.5932 97.107 25.7972ZM93.486 25.7972C93.486 26.0012 93.3206 26.1666 93.1166 26.1666H93.0942C92.8902 26.1666 92.7248 26.0012 92.7248 25.7972C92.7248 25.5932 92.8902 25.4278 93.0942 25.4278H93.1166C93.3206 25.4278 93.486 25.5932 93.486 25.7972Z" fill="#55555E"/>
<path fill-rule="evenodd" clip-rule="evenodd" d="M79.877 25.7972C79.877 26.0012 79.7116 26.1666 79.5075 26.1666H79.485C79.281 26.1666 79.1156 26.0012 79.1156 25.7972C79.1156 25.5932 79.281 25.4278 79.485 25.4278H79.5075C79.7116 25.4278 79.877 25.5932 79.877 25.7972ZM76.2469 25.7972C76.2469 26.0012 76.0815 26.1666 75.8775 26.1666H75.8324C75.6284 26.1666 75.463 26.0012 75.463 25.7972C75.463 25.5932 75.6284 25.4278 75.8324 25.4278H75.8775C76.0815 25.4278 76.2469 25.5932 76.2469 25.7972ZM72.5943 25.7972C72.5943 26.0012 72.4289 26.1666 72.2249 26.1666H72.1798C71.9758 26.1666 71.8104 26.0012 71.8104 25.7972C71.8104 25.5932 71.9758 25.4278 72.1798 25.4278H72.2249C72.4289 25.4278 72.5943 25.5932 72.5943 25.7972Z" fill="#55555E"/>
<path fill-rule="evenodd" clip-rule="evenodd" d="M86.1983 0.451213H86.2477C86.4517 0.451407 86.617 0.616962 86.6168 0.820989C86.6166 1.02502 86.451 1.19026 86.247 1.19006H86.199C85.995 1.19026 85.8294 1.02502 85.8293 0.820989C85.8291 0.616962 85.9943 0.451407 86.1983 0.451213ZM82.7066 1.06366C82.7381 1.26524 82.6002 1.45418 82.3986 1.48565L82.3514 1.49308C82.1498 1.52495 81.9606 1.38742 81.9288 1.1859C81.8969 0.984379 82.0344 0.795176 82.2359 0.763304L82.2846 0.755652C82.4862 0.724174 82.6752 0.862072 82.7066 1.06366ZM89.7394 1.06366C89.7709 0.862072 89.9598 0.724174 90.1614 0.755652L90.2101 0.763304C90.4116 0.795176 90.5491 0.984379 90.5173 1.1859C90.4854 1.38742 90.2962 1.52495 90.0947 1.49308L90.0474 1.48565C89.8458 1.45418 89.7079 1.26524 89.7394 1.06366ZM93.5632 1.91466C93.626 1.72054 93.8343 1.61411 94.0285 1.67694L94.0752 1.69213C94.2692 1.75533 94.3753 1.96383 94.312 2.15782C94.2488 2.35181 94.0403 2.45784 93.8464 2.39463L93.8009 2.37989C93.6068 2.31706 93.5004 2.10877 93.5632 1.91466ZM78.8828 1.91466C78.9456 2.10877 78.8392 2.31706 78.6451 2.37989L78.5997 2.39463C78.4057 2.45784 78.1972 2.35181 78.134 2.15782C78.0708 1.96383 78.1768 1.75533 78.3708 1.69213L78.4176 1.67694C78.6117 1.61411 78.82 1.72054 78.8828 1.91466ZM97.2048 3.35738C97.2974 3.17558 97.5199 3.10326 97.7017 3.19586L97.7454 3.21819C97.9271 3.31114 97.9989 3.53373 97.906 3.71536C97.813 3.89698 97.5905 3.96886 97.4088 3.87591L97.3664 3.85423C97.1845 3.76163 97.1122 3.53919 97.2048 3.35738ZM75.2412 3.35738C75.3338 3.53919 75.2615 3.76163 75.0797 3.85423L75.0372 3.87591C74.8556 3.96887 74.633 3.89698 74.54 3.71536C74.4471 3.53373 74.519 3.31115 74.7006 3.21819L74.7444 3.19586C74.9262 3.10326 75.1486 3.17558 75.2412 3.35738ZM71.8715 5.35403C71.9914 5.51911 71.9548 5.75013 71.7897 5.87003L71.7511 5.89808C71.5863 6.0183 71.3552 5.98212 71.235 5.81727C71.1148 5.65242 71.1509 5.42133 71.3158 5.30111L71.3555 5.27222C71.5206 5.15232 71.7516 5.18895 71.8715 5.35403ZM100.575 5.35403C100.694 5.18895 100.925 5.15232 101.091 5.27222L101.13 5.30111C101.295 5.42133 101.331 5.65242 101.211 5.81727C101.091 5.98212 100.86 6.0183 100.695 5.89808L100.656 5.87003C100.491 5.75013 100.455 5.51911 100.575 5.35403ZM68.8546 7.85219C68.9987 7.9966 68.9985 8.23051 68.8541 8.37464L68.8204 8.40836C68.6762 8.55277 68.4423 8.55299 68.2979 8.40886C68.1535 8.26473 68.1533 8.03082 68.2974 7.88642L68.3321 7.85169C68.4765 7.70756 68.7104 7.70778 68.8546 7.85219ZM103.591 7.85219C103.736 7.70778 103.969 7.70756 104.114 7.85169L104.149 7.88642C104.293 8.03082 104.293 8.26473 104.148 8.40886C104.004 8.55299 103.77 8.55277 103.626 8.40836L103.592 8.37464C103.448 8.23051 103.447 7.9966 103.591 7.85219ZM106.183 10.7893C106.348 10.669 106.579 10.7052 106.699 10.8701L106.728 10.9098C106.848 11.0749 106.811 11.3059 106.646 11.4258C106.481 11.5457 106.25 11.509 106.13 11.344L106.102 11.3054C105.982 11.1406 106.018 10.9095 106.183 10.7893ZM108.285 14.0943C108.467 14.0014 108.689 14.0733 108.782 14.2549L108.804 14.2986C108.897 14.4804 108.825 14.7029 108.643 14.7955C108.461 14.8881 108.239 14.8158 108.146 14.634L108.124 14.5915C108.031 14.4099 108.103 14.1873 108.285 14.0943ZM109.842 17.6883C110.036 17.6251 110.245 17.7311 110.308 17.9251L110.323 17.9719C110.386 18.166 110.28 18.3743 110.086 18.4371C109.892 18.4999 109.683 18.3935 109.62 18.1994L109.606 18.154C109.542 17.96 109.649 17.7515 109.842 17.6883ZM110.814 21.483C111.016 21.4512 111.205 21.5887 111.237 21.7902L111.245 21.8389C111.276 22.0405 111.138 22.2294 110.937 22.2609C110.735 22.2924 110.546 22.1545 110.515 21.9529L110.507 21.9056C110.475 21.7041 110.613 21.5149 110.814 21.483ZM111.179 25.3835C111.383 25.3833 111.549 25.5486 111.549 25.7526V25.802C111.549 26.006 111.383 26.1713 111.179 26.1711C110.975 26.1709 110.81 26.0053 110.81 25.8013V25.7533C110.81 25.5493 110.975 25.3837 111.179 25.3835ZM110.937 29.2937C111.138 29.3252 111.276 29.5141 111.245 29.7157L111.237 29.7644C111.205 29.9659 111.016 30.1034 110.814 30.0716C110.613 30.0397 110.475 29.8505 110.507 29.649L110.515 29.6017C110.546 29.4001 110.735 29.2622 110.937 29.2937ZM110.086 33.1175C110.28 33.1803 110.386 33.3886 110.323 33.5827L110.308 33.6295C110.245 33.8235 110.036 33.9295 109.842 33.8663C109.649 33.8031 109.542 33.5946 109.606 33.4006L109.62 33.3552C109.683 33.1611 109.892 33.0547 110.086 33.1175ZM108.643 36.7591C108.825 36.8517 108.897 37.0742 108.804 37.256L108.782 37.2997C108.689 37.4813 108.467 37.5532 108.285 37.4603C108.103 37.3673 108.031 37.1447 108.124 36.9631L108.146 36.9206C108.239 36.7388 108.461 36.6665 108.643 36.7591ZM106.646 40.1288C106.811 40.2487 106.848 40.4797 106.728 40.6448L106.699 40.6845C106.579 40.8494 106.348 40.8855 106.183 40.7653C106.018 40.6451 105.982 40.414 106.102 40.2492L106.13 40.2106C106.25 40.0455 106.481 40.0089 106.646 40.1288ZM68.2979 43.1457C68.4423 43.0016 68.6762 43.0018 68.8204 43.1462L68.8541 43.18C68.9985 43.3241 68.9987 43.558 68.8546 43.7024C68.7104 43.8468 68.4765 43.847 68.3321 43.7029L68.2974 43.6682C68.1533 43.5238 68.1535 43.2899 68.2979 43.1457ZM104.148 43.1457C104.293 43.2899 104.293 43.5238 104.149 43.6682L104.114 43.7029C103.969 43.847 103.736 43.8468 103.591 43.7024C103.447 43.558 103.448 43.3241 103.592 43.18L103.626 43.1462C103.77 43.0018 104.004 43.0016 104.148 43.1457ZM71.235 45.7373C71.3552 45.5725 71.5863 45.5363 71.7511 45.6565L71.7897 45.6846C71.9548 45.8045 71.9914 46.0355 71.8715 46.2006C71.7516 46.3656 71.5206 46.4023 71.3555 46.2824L71.3158 46.2535C71.1509 46.1333 71.1148 45.9022 71.235 45.7373ZM101.211 45.7373C101.331 45.9022 101.295 46.1333 101.13 46.2535L101.091 46.2824C100.925 46.4023 100.694 46.3656 100.575 46.2006C100.455 46.0355 100.491 45.8045 100.656 45.6846L100.695 45.6565C100.86 45.5363 101.091 45.5725 101.211 45.7373ZM74.54 47.8392C74.633 47.6576 74.8556 47.5857 75.0372 47.6787L75.0797 47.7004C75.2615 47.793 75.3338 48.0154 75.2412 48.1972C75.1486 48.379 74.9262 48.4513 74.7444 48.3587L74.7006 48.3364C74.519 48.2435 74.4471 48.0209 74.54 47.8392ZM97.906 47.8392C97.9989 48.0209 97.9271 48.2434 97.7454 48.3364L97.7017 48.3587C97.5199 48.4513 97.2974 48.379 97.2048 48.1972C97.1122 48.0154 97.1846 47.793 97.3664 47.7004L97.4088 47.6787C97.5905 47.5857 97.813 47.6576 97.906 47.8392ZM78.134 49.3968C78.1972 49.2028 78.4057 49.0968 78.5997 49.16L78.6451 49.1747C78.8392 49.2375 78.9456 49.4458 78.8828 49.6399C78.82 49.8341 78.6117 49.9405 78.4176 49.8777L78.3708 49.8625C78.1768 49.7993 78.0708 49.5908 78.134 49.3968ZM94.312 49.3968C94.3753 49.5908 94.2692 49.7993 94.0752 49.8625L94.0285 49.8777C93.8343 49.9405 93.626 49.8341 93.5632 49.6399C93.5004 49.4458 93.6068 49.2375 93.8009 49.1747L93.8464 49.16C94.0403 49.0968 94.2488 49.2028 94.312 49.3968ZM81.9288 50.3687C81.9606 50.1672 82.1498 50.0296 82.3514 50.0615L82.3986 50.0689C82.6002 50.1004 82.7381 50.2894 82.7066 50.4909C82.6752 50.6925 82.4862 50.8304 82.2846 50.7989L82.2359 50.7913C82.0344 50.7594 81.8969 50.5702 81.9288 50.3687ZM90.5173 50.3687C90.5491 50.5702 90.4116 50.7594 90.2101 50.7913L90.1614 50.7989C89.9598 50.8304 89.7709 50.6925 89.7394 50.4909C89.7079 50.2894 89.8458 50.1004 90.0474 50.0689L90.0947 50.0615C90.2962 50.0296 90.4854 50.1672 90.5173 50.3687ZM85.8293 50.7336C85.8294 50.5296 85.995 50.3643 86.199 50.3645H86.247C86.451 50.3643 86.6166 50.5296 86.6168 50.7336C86.617 50.9376 86.4517 51.1032 86.2477 51.1034H86.1983C85.9943 51.1032 85.8291 50.9376 85.8293 50.7336Z" fill="white"/>
<path d="M87.043 50.7338C87.043 51.1872 86.6754 51.5547 86.222 51.5547C85.7686 51.5547 85.4011 51.1872 85.4011 50.7338C85.4011 50.2804 85.7686 49.9128 86.222 49.9128C86.6754 49.9128 87.043 50.2804 87.043 50.7338Z" fill="#6966FF"/>
<path d="M111.178 26.5987C110.725 26.5987 110.357 26.2311 110.357 25.7777C110.357 25.3243 110.725 24.9568 111.178 24.9568C111.632 24.9568 111.999 25.3243 111.999 25.7777C111.999 26.2311 111.632 26.5987 111.178 26.5987Z" fill="#6966FF"/>
<path d="M87.043 0.820699C87.043 1.27409 86.6754 1.64164 86.222 1.64164C85.7686 1.64164 85.4011 1.27409 85.4011 0.820699C85.4011 0.367305 85.7686 -0.00024418 86.222 -0.000244141C86.6754 -0.000244101 87.043 0.367305 87.043 0.820699Z" fill="#6966FF"/>
<path fill-rule="evenodd" clip-rule="evenodd" d="M93.3953 10.3887H100.204L78.2832 41.0896H71.5879L93.3953 10.3887ZM85.3971 19.4352L78.9807 10.3887H72.1459L82.0494 24.3697L85.3971 19.4352ZM83.7186 19.4527L82.025 21.9492L74.813 11.7679H78.2681L83.7186 19.4527ZM74.2593 39.7104H77.5733L97.5243 11.7679H94.1074L74.2593 39.7104Z" fill="white"/>
<path fill-rule="evenodd" clip-rule="evenodd" d="M94.8183 39.6842C94.8645 39.7484 94.9389 39.7865 95.018 39.7865H98.203L90.636 29.0414C90.5378 28.9019 90.3308 28.9022 90.233 29.042L88.8152 31.0674C88.7552 31.1532 88.7559 31.2676 88.8171 31.3525L94.8183 39.6842ZM87.0234 31.2221L94.1857 41.1657H100.861L90.4307 26.3545L87.0234 31.2221Z" fill="url(#paint0_linear_310_691)"/>
<path fill-rule="evenodd" clip-rule="evenodd" d="M23.4096 10.3887H17.5577V19.5238C15.8676 18.6197 13.9273 18.1056 11.8639 18.1056C5.31271 18.1056 0.00195312 23.288 0.00195312 29.6809C0.00195312 36.0737 5.31271 41.2562 11.8639 41.2562C13.9273 41.2562 15.8676 40.7421 17.5577 39.8379V40.9806H23.4096V10.3887ZM18.5196 29.6199C18.5196 33.2406 15.5118 36.1758 11.8014 36.1758C8.09099 36.1758 5.08313 33.2406 5.08313 29.6199C5.08313 25.9992 8.09099 23.064 11.8014 23.064C15.5118 23.064 18.5196 25.9992 18.5196 29.6199Z" fill="white"/>
<path d="M47.1208 10.3887L25.3603 40.9806H32.1822L53.9217 10.3887H47.1208Z" fill="white"/>
<path fill-rule="evenodd" clip-rule="evenodd" d="M64.0944 10.3887H69.9463V40.9806H64.0944V39.8379C62.4043 40.7421 60.464 41.2562 58.4006 41.2562C51.8494 41.2562 46.5386 36.0737 46.5386 29.6809C46.5386 23.288 51.8494 18.1056 58.4006 18.1056C60.464 18.1056 62.4043 18.6197 64.0944 19.5238V10.3887ZM58.3381 36.1758C62.0485 36.1758 65.0563 33.2406 65.0563 29.6199C65.0563 25.9992 62.0485 23.064 58.3381 23.064C54.6277 23.064 51.6198 25.9992 51.6198 29.6199C51.6198 33.2406 54.6277 36.1758 58.3381 36.1758Z" fill="white"/>
<path d="M39.0152 19.6763L32.1879 10.3887H25.082L35.2532 24.8664L39.0152 19.6763Z" fill="white"/>
<defs>
<linearGradient id="paint0_linear_310_691" x1="70.1427" y1="54.8542" x2="35.3017" y2="-33.2978" gradientUnits="userSpaceOnUse">
<stop stop-color="#6966FF"/>
<stop offset="1" stop-color="#6966FF" stop-opacity="0.36"/>
</linearGradient>
</defs>
</svg>
